<?xml version="1.0" encoding="UTF-8"?>
<svg version="1.1" xmlns="http://www.w3.org/2000/svg" width="612" height="612">
<path d="M0 0 C201.96 0 403.92 0 612 0 C612 201.96 612 403.92 612 612 C410.04 612 208.08 612 0 612 C0 410.04 0 208.08 0 0 Z " fill="#F9F9F9" transform="translate(0,0)"/>
<path d="M0 0 C3.22814276 1.18720953 6.54306852 1.91820117 9.890625 2.6953125 C9.890625 3.3553125 9.890625 4.0153125 9.890625 4.6953125 C10.61636719 4.82808594 11.34210938 4.96085937 12.08984375 5.09765625 C26.74595521 8.225111 40.37326174 16.66641429 53.1953125 24.12890625 C54.73744167 25.02512914 56.29528733 25.89764367 57.890625 26.6953125 C57.890625 27.3553125 57.890625 28.0153125 57.890625 28.6953125 C58.40625 28.9428125 58.921875 29.1903125 59.453125 29.4453125 C62.66246651 31.09112866 65.76648164 32.8929221 68.890625 34.6953125 C68.890625 35.3553125 68.890625 36.0153125 68.890625 36.6953125 C69.48875 36.8190625 70.086875 36.9428125 70.703125 37.0703125 C72.890625 37.6953125 72.890625 37.6953125 75.890625 39.6953125 C75.890625 40.3553125 75.890625 41.0153125 75.890625 41.6953125 C76.509375 42.0046875 77.128125 42.3140625 77.765625 42.6328125 C79.140625 43.3203125 80.515625 44.0078125 81.890625 44.6953125 C81.890625 45.3553125 81.890625 46.0153125 81.890625 46.6953125 C82.756875 47.0975 82.756875 47.0975 83.640625 47.5078125 C85.94612543 48.72460439 87.91118692 49.99865129 89.890625 51.6953125 C89.890625 52.3553125 89.890625 53.0153125 89.890625 53.6953125 C91.210625 54.3553125 92.530625 55.0153125 93.890625 55.6953125 C93.890625 56.3553125 93.890625 57.0153125 93.890625 57.6953125 C95.210625 58.3553125 96.530625 59.0153125 97.890625 59.6953125 C97.890625 60.3553125 97.890625 61.0153125 97.890625 61.6953125 C98.550625 61.6953125 99.210625 61.6953125 99.890625 61.6953125 C99.890625 62.3553125 99.890625 63.0153125 99.890625 63.6953125 C100.550625 63.6953125 101.210625 63.6953125 101.890625 63.6953125 C103.29296875 65.59375 103.29296875 65.59375 104.828125 68.0703125 C106.75650129 71.17741496 107.78785573 72.62679965 110.890625 74.6953125 C111.8343072 76.36248438 112.77761596 78.03184842 113.6328125 79.74609375 C114.89115339 81.86372522 114.89115339 81.86372522 117.140625 83.8359375 C120.74182985 87.58037209 123.29483828 91.72595221 126.015625 96.1328125 C126.54027344 96.96619141 127.06492187 97.79957031 127.60546875 98.65820312 C134.890625 110.32367484 134.890625 110.32367484 134.890625 113.6953125 C135.550625 113.6953125 136.210625 113.6953125 136.890625 113.6953125 C137.19355469 114.50613281 137.49648438 115.31695312 137.80859375 116.15234375 C139.86481327 121.5870901 141.95656555 126.94633502 144.453125 132.1953125 C147.50866594 138.77052719 150.890625 146.36362258 150.890625 153.6953125 C151.550625 153.6953125 152.210625 153.6953125 152.890625 153.6953125 C154.08151486 159.07558275 155.1825769 164.14822634 154.890625 169.6953125 C155.550625 169.6953125 156.210625 169.6953125 156.890625 169.6953125 C157.37470016 172.96543829 157.85193956 176.23652929 158.328125 179.5078125 C158.53018555 180.87196289 158.53018555 180.87196289 158.73632812 182.26367188 C160.51396644 194.53371198 161.05060549 206.51731928 161.02099609 218.90087891 C161.01565043 221.55767561 161.02096077 224.21430226 161.02734375 226.87109375 C161.04003219 254.38284251 154.80585791 278.82175612 145.890625 304.6953125 C145.38789062 306.35240234 145.38789062 306.35240234 144.875 308.04296875 C143.890625 310.6953125 143.890625 310.6953125 141.890625 311.6953125 C140.93169256 313.69892514 140.93169256 313.69892514 140.078125 316.1328125 C138.32862205 320.70641946 136.29371088 325.02694639 134.0390625 329.37109375 C132.83824729 331.70506616 132.83824729 331.70506616 131.9140625 334.2890625 C130.89889996 336.67585688 129.91567601 338.02664357 128.140625 339.8828125 C124.86327755 343.51359938 122.55271138 347.48762443 120.1875 351.75390625 C119.75953125 352.39457031 119.3315625 353.03523438 118.890625 353.6953125 C118.230625 353.6953125 117.570625 353.6953125 116.890625 353.6953125 C116.64570313 354.23800781 116.40078125 354.78070313 116.1484375 355.33984375 C111.66685949 363.73236406 104.79169567 372.14177776 97.890625 378.6953125 C97.230625 378.6953125 96.570625 378.6953125 95.890625 378.6953125 C95.890625 379.6853125 95.890625 380.6753125 95.890625 381.6953125 C95.230625 381.6953125 94.570625 381.6953125 93.890625 381.6953125 C93.890625 382.3553125 93.890625 383.0153125 93.890625 383.6953125 C90.42908654 386.6953125 90.42908654 386.6953125 87.890625 386.6953125 C87.890625 387.3553125 87.890625 388.0153125 87.890625 388.6953125 C86.28125 390.38671875 86.28125 390.38671875 84.140625 392.2578125 C83.44453125 392.87785156 82.7484375 393.49789063 82.03125 394.13671875 C79.890625 395.6953125 79.890625 395.6953125 77.75 396.16015625 C77.13640625 396.33675781 76.5228125 396.51335937 75.890625 396.6953125 C75.20606306 398.01954706 74.54169832 399.35429581 73.890625 400.6953125 C71.71875 402.4765625 71.71875 402.4765625 69.140625 404.1953125 C67.80257812 405.09443359 67.80257812 405.09443359 66.4375 406.01171875 C65.59703125 406.56730469 64.7565625 407.12289063 63.890625 407.6953125 C63.25640625 408.13746094 62.6221875 408.57960938 61.96875 409.03515625 C58.14418372 411.6953125 58.14418372 411.6953125 55.890625 411.6953125 C55.890625 412.3553125 55.890625 413.0153125 55.890625 413.6953125 C52.08125014 415.78439733 48.26757593 417.86551263 44.453125 419.9453125 C43.38384766 420.53183594 42.31457031 421.11835938 41.21289062 421.72265625 C24.72941538 430.6953125 24.72941538 430.6953125 19.890625 430.6953125 C19.890625 431.3553125 19.890625 432.0153125 19.890625 432.6953125 C6.98398151 437.25594811 -5.89948611 441.7403382 -19.296875 444.6328125 C-20.5818689 444.91257935 -20.5818689 444.91257935 -21.89282227 445.19799805 C-36.3516274 448.14740215 -50.46584779 449.02148509 -65.18139648 448.95605469 C-68.03976711 448.94533915 -70.89750771 448.95601247 -73.75585938 448.96875 C-88.4897909 448.98075013 -102.80989014 447.91951737 -117.234375 444.7578125 C-118.00523437 444.60119141 -118.77609375 444.44457031 -119.5703125 444.28320312 C-124.38637049 443.25528599 -128.58600271 441.68355185 -133.109375 439.6953125 C-135.81607223 438.8210765 -138.55483714 438.07508511 -141.296875 437.3203125 C-167.19874797 429.89784454 -197.05497274 414.94536755 -216.15234375 395.62890625 C-218.18597625 393.49138131 -218.18597625 393.49138131 -221.359375 391.5703125 C-222.266875 390.9515625 -223.174375 390.3328125 -224.109375 389.6953125 C-224.109375 389.0353125 -224.109375 388.3753125 -224.109375 387.6953125 C-224.769375 387.6953125 -225.429375 387.6953125 -226.109375 387.6953125 C-226.109375 387.0353125 -226.109375 386.3753125 -226.109375 385.6953125 C-227.429375 385.0353125 -228.749375 384.3753125 -230.109375 383.6953125 C-230.109375 383.0353125 -230.109375 382.3753125 -230.109375 381.6953125 C-230.728125 381.4478125 -231.346875 381.2003125 -231.984375 380.9453125 C-234.53906217 379.44255534 -234.80796747 378.29812756 -236.109375 375.6953125 C-236.893125 375.0765625 -237.676875 374.4578125 -238.484375 373.8203125 C-241.45532855 371.41525486 -243.02705071 368.88387157 -245.109375 365.6953125 C-245.99625 364.8290625 -246.883125 363.9628125 -247.796875 363.0703125 C-250.13037883 360.673741 -250.44488683 359.7962573 -251.109375 356.6953125 C-252.099375 356.3653125 -253.089375 356.0353125 -254.109375 355.6953125 C-255.49609375 353.91796875 -255.49609375 353.91796875 -256.796875 351.7578125 C-257.45236328 350.69240234 -257.45236328 350.69240234 -258.12109375 349.60546875 C-259.109375 347.6953125 -259.109375 347.6953125 -259.109375 345.6953125 C-259.769375 345.6953125 -260.429375 345.6953125 -261.109375 345.6953125 C-261.38910156 345.10105469 -261.66882813 344.50679688 -261.95703125 343.89453125 C-264.14650693 339.36773748 -266.43507692 335.14453484 -269.296875 331.0078125 C-274.72646722 322.71425954 -278.22902681 313.35588519 -282.0378418 304.24047852 C-282.96443125 302.03959107 -283.92392526 299.85742905 -284.89453125 297.67578125 C-286.092468 294.73679173 -286.39418383 292.82820962 -286.109375 289.6953125 C-286.769375 289.6953125 -287.429375 289.6953125 -288.109375 289.6953125 C-288.30273438 288.74269531 -288.49609375 287.79007812 -288.6953125 286.80859375 C-289.08589844 284.92720703 -289.08589844 284.92720703 -289.484375 283.0078125 C-289.73960937 281.76644531 -289.99484375 280.52507812 -290.2578125 279.24609375 C-290.97763905 275.83889767 -290.97763905 275.83889767 -292.09570312 273.3059082 C-298.43585097 256.97758429 -297.48202772 236.42814498 -297.421875 219.1953125 C-297.41923645 218.27329041 -297.4165979 217.35126831 -297.41387939 216.40130615 C-297.28190305 188.56916762 -297.28190305 188.56916762 -293.671875 175.5078125 C-293.23324654 173.86913824 -292.79704575 172.22981223 -292.36328125 170.58984375 C-292.15074707 169.79143066 -291.93821289 168.99301758 -291.71923828 168.17041016 C-290.88435727 164.78209004 -290.25559114 161.3647734 -289.65209961 157.9284668 C-289.09036963 155.61711091 -288.20304177 153.79773828 -287.109375 151.6953125 C-286.72268443 149.89344187 -286.39225748 148.07886847 -286.109375 146.2578125 C-285.51905981 142.46819979 -284.64294538 139.2161345 -283.109375 135.6953125 C-282.449375 135.6953125 -281.789375 135.6953125 -281.109375 135.6953125 C-281.109375 134.3753125 -281.109375 133.0553125 -281.109375 131.6953125 C-280.449375 131.6953125 -279.789375 131.6953125 -279.109375 131.6953125 C-279.03460938 131.07785156 -278.95984375 130.46039063 -278.8828125 129.82421875 C-277.93900149 123.74496549 -276.16623423 119.81013611 -272.5625 114.859375 C-270.4099505 111.65369645 -269.38269454 108.33336832 -268.109375 104.6953125 C-266.546875 101.6953125 -266.546875 101.6953125 -265.109375 99.6953125 C-264.449375 99.6953125 -263.789375 99.6953125 -263.109375 99.6953125 C-262.8309375 98.5196875 -262.8309375 98.5196875 -262.546875 97.3203125 C-259.53175747 89.71697264 -254.12578868 83.53124418 -248.6796875 77.5234375 C-247.21198428 75.81476808 -245.99689973 74.09757392 -244.796875 72.1953125 C-244.24 71.3703125 -243.683125 70.5453125 -243.109375 69.6953125 C-242.449375 69.6953125 -241.789375 69.6953125 -241.109375 69.6953125 C-240.86944824 69.13158936 -240.62952148 68.56786621 -240.38232422 67.98706055 C-237.67342161 63.11010067 -233.16941381 59.41451213 -229.234375 55.5078125 C-228.76083588 55.03509918 -228.28729675 54.56238586 -227.79940796 54.0753479 C-209.34492615 35.6953125 -209.34492615 35.6953125 -204.109375 35.6953125 C-204.109375 35.0353125 -204.109375 34.3753125 -204.109375 33.6953125 C-202.4296875 32.40625 -202.4296875 32.40625 -200.234375 31.0703125 C-199.51507813 30.62429687 -198.79578125 30.17828125 -198.0546875 29.71875 C-196.109375 28.6953125 -196.109375 28.6953125 -194.109375 28.6953125 C-194.109375 28.0353125 -194.109375 27.3753125 -194.109375 26.6953125 C-192.129375 26.0353125 -190.149375 25.3753125 -188.109375 24.6953125 C-188.109375 24.0353125 -188.109375 23.3753125 -188.109375 22.6953125 C-180.95501774 18.59088532 -173.99776503 15.19650934 -166.109375 12.6953125 C-166.109375 12.0353125 -166.109375 11.3753125 -166.109375 10.6953125 C-164.93181641 10.20611328 -164.93181641 10.20611328 -163.73046875 9.70703125 C-162.67988281 9.27003906 -161.62929687 8.83304688 -160.546875 8.3828125 C-158.99806641 7.73892578 -158.99806641 7.73892578 -157.41796875 7.08203125 C-155.15597988 6.13397216 -152.90753226 5.15311754 -150.671875 4.14453125 C-147.02279217 2.66009076 -143.50743908 1.7075566 -139.671875 0.8203125 C-134.27102696 -0.44268374 -129.14835669 -1.9836178 -123.921875 -3.8671875 C-88.57321237 -15.49066732 -34.43568472 -13.74533634 0 0 Z " fill="#CCCCCC" transform="translate(374.109375,86.3046875)"/>
<path d="M0 0 C2.76688589 0.97980312 5.4814628 1.76217283 8.3203125 2.48828125 C18.83855767 5.60282085 28.86585667 11.71968559 38.3203125 17.17578125 C39.83625 18.01109375 39.83625 18.01109375 41.3828125 18.86328125 C42.0221875 19.29640625 42.6615625 19.72953125 43.3203125 20.17578125 C43.3203125 20.83578125 43.3203125 21.49578125 43.3203125 22.17578125 C44.0834375 22.46453125 44.8465625 22.75328125 45.6328125 23.05078125 C48.3203125 24.17578125 48.3203125 24.17578125 51.3203125 26.17578125 C51.3203125 26.83578125 51.3203125 27.49578125 51.3203125 28.17578125 C51.8771875 28.40265625 52.4340625 28.62953125 53.0078125 28.86328125 C55.97271222 30.54606217 57.9368275 32.73686637 60.3203125 35.17578125 C61.52038803 36.20630969 62.72907219 37.22688141 63.9453125 38.23828125 C66.44286402 40.35494256 68.60373869 42.34848321 70.3203125 45.17578125 C70.3203125 45.83578125 70.3203125 46.49578125 70.3203125 47.17578125 C70.9803125 47.17578125 71.6403125 47.17578125 72.3203125 47.17578125 C74.05288436 49.4124289 75.63899957 51.63262792 77.1953125 53.98828125 C77.87086182 55.00583496 77.87086182 55.00583496 78.56005859 56.04394531 C82.49945246 62.14634091 86.3203125 68.73813816 86.3203125 76.17578125 C86.9803125 76.17578125 87.6403125 76.17578125 88.3203125 76.17578125 C93.79647433 93.05200324 93.79647433 93.05200324 92.3203125 101.17578125 C89.17366987 104.81778086 85.52095471 106.90423832 81.3203125 109.17578125 C80.12267514 109.99447866 78.93233396 110.82425319 77.7578125 111.67578125 C75.3203125 113.17578125 75.3203125 113.17578125 73.3203125 113.17578125 C73.3203125 113.83578125 73.3203125 114.49578125 73.3203125 115.17578125 C69.51093764 117.26486608 65.69726343 119.34598138 61.8828125 121.42578125 C60.81353516 122.01230469 59.74425781 122.59882813 58.64257812 123.203125 C42.15910288 132.17578125 42.15910288 132.17578125 37.3203125 132.17578125 C37.3203125 132.83578125 37.3203125 133.49578125 37.3203125 134.17578125 C24.41366901 138.73641686 11.53020139 143.22080695 -1.8671875 146.11328125 C-2.7238501 146.29979248 -3.5805127 146.48630371 -4.46313477 146.6784668 C-18.9219399 149.6278709 -33.03616029 150.50195384 -47.75170898 150.43652344 C-50.61007961 150.4258079 -53.46782021 150.43648122 -56.32617188 150.44921875 C-71.0601034 150.46121888 -85.38020264 149.39998612 -99.8046875 146.23828125 C-100.96097656 146.00334961 -100.96097656 146.00334961 -102.140625 145.76367188 C-106.95668299 144.73575474 -111.15631521 143.1640206 -115.6796875 141.17578125 C-118.38638473 140.30154525 -121.12514964 139.55555386 -123.8671875 138.80078125 C-146.68388798 132.26240356 -168.64634253 120.27361788 -187.6796875 106.17578125 C-188.24300781 105.79897217 -188.80632812 105.42216309 -189.38671875 105.03393555 C-191.0546875 103.83203125 -191.0546875 103.83203125 -193.6796875 101.17578125 C-194.1171875 97.90625 -194.1171875 97.90625 -193.6796875 94.36328125 C-193.53660156 93.13738281 -193.39351562 91.91148437 -193.24609375 90.6484375 C-192.60543964 86.72056508 -191.82288967 82.98645514 -190.6796875 79.17578125 C-190.0196875 79.17578125 -189.3596875 79.17578125 -188.6796875 79.17578125 C-188.5353125 77.89703125 -188.3909375 76.61828125 -188.2421875 75.30078125 C-187.97326004 72.91885231 -187.75742404 71.33125434 -186.6796875 69.17578125 C-186.0196875 69.17578125 -185.3596875 69.17578125 -184.6796875 69.17578125 C-184.3496875 67.19578125 -184.0196875 65.21578125 -183.6796875 63.17578125 C-183.0196875 63.17578125 -182.3596875 63.17578125 -181.6796875 63.17578125 C-181.0196875 60.53578125 -180.3596875 57.89578125 -179.6796875 55.17578125 C-179.0196875 55.17578125 -178.3596875 55.17578125 -177.6796875 55.17578125 C-177.43089844 54.4590625 -177.18210938 53.74234375 -176.92578125 53.00390625 C-175.55114397 49.88403983 -173.87571461 47.57977773 -171.7421875 44.92578125 C-171.05253906 44.054375 -170.36289063 43.18296875 -169.65234375 42.28515625 C-167.6796875 40.17578125 -167.6796875 40.17578125 -164.6796875 39.17578125 C-163.99482025 37.85170456 -163.33098547 36.51668884 -162.6796875 35.17578125 C-160.6796875 32.92578125 -160.6796875 32.92578125 -158.6796875 31.17578125 C-158.0196875 31.17578125 -157.3596875 31.17578125 -156.6796875 31.17578125 C-156.6796875 30.51578125 -156.6796875 29.85578125 -156.6796875 29.17578125 C-155.12255859 27.80297852 -155.12255859 27.80297852 -152.953125 26.2421875 C-152.16808594 25.67564453 -151.38304687 25.10910156 -150.57421875 24.52539062 C-149.74277344 23.93564453 -148.91132813 23.34589844 -148.0546875 22.73828125 C-147.24644531 22.15240234 -146.43820313 21.56652344 -145.60546875 20.96289062 C-134.73356803 13.17578125 -134.73356803 13.17578125 -130.6796875 13.17578125 C-130.6796875 12.51578125 -130.6796875 11.85578125 -130.6796875 11.17578125 C-90.63535548 -7.15562408 -42.68646262 -15.12752282 0 0 Z " fill="#999999" transform="translate(356.6796875,384.82421875)"/>
<path d="M0 0 C16.70097384 -1.0637563 31.57564522 2.32515901 46.796875 9.15625 C46.796875 9.81625 46.796875 10.47625 46.796875 11.15625 C47.3434375 11.26453125 47.89 11.3728125 48.453125 11.484375 C55.34946227 13.46132502 61.7351929 17.2199454 65.796875 23.15625 C67.44327465 24.51452971 69.10983307 25.84879251 70.796875 27.15625 C73.109375 29.28125 73.109375 29.28125 74.796875 31.15625 C74.796875 31.81625 74.796875 32.47625 74.796875 33.15625 C75.456875 33.15625 76.116875 33.15625 76.796875 33.15625 C79.16456023 37.24797787 81.515365 41.3484032 83.83984375 45.46484375 C84.57942292 46.77193674 85.32710228 48.07444846 86.078125 49.375 C94.5071586 64.87354566 96.77923849 87.69003646 92.48046875 104.85546875 C92.25488281 105.61472656 92.02929688 106.37398438 91.796875 107.15625 C91.54035156 108.07019531 91.28382813 108.98414063 91.01953125 109.92578125 C88.51135548 118.13924955 84.78352941 125.586086 80.796875 133.15625 C80.136875 133.15625 79.476875 133.15625 78.796875 133.15625 C78.61125 133.81625 78.425625 134.47625 78.234375 135.15625 C76.18878726 139.42530268 73.22502857 142.89788706 69.796875 146.15625 C69.136875 146.15625 68.476875 146.15625 67.796875 146.15625 C67.52875 146.795625 67.260625 147.435 66.984375 148.09375 C65.796875 150.15625 65.796875 150.15625 62.796875 151.15625 C62.466875 152.14625 62.136875 153.13625 61.796875 154.15625 C56.42544643 158.15625 56.42544643 158.15625 53.796875 158.15625 C53.796875 158.81625 53.796875 159.47625 53.796875 160.15625 C52.02931974 160.99651396 50.25770237 161.82823722 48.484375 162.65625 C47.49824219 163.1203125 46.51210938 163.584375 45.49609375 164.0625 C42.796875 165.15625 42.796875 165.15625 39.796875 165.15625 C39.796875 165.81625 39.796875 166.47625 39.796875 167.15625 C37.82122558 167.8127641 35.841119 168.45586906 33.859375 169.09375 C32.75722656 169.45339844 31.65507812 169.81304687 30.51953125 170.18359375 C10.52309649 175.40826558 -15.01223183 173.33510208 -33.04199219 163.11376953 C-40.97760076 158.35606886 -48.44762606 153.49947279 -54.203125 146.15625 C-54.863125 145.82625 -55.523125 145.49625 -56.203125 145.15625 C-56.203125 144.16625 -56.203125 143.17625 -56.203125 142.15625 C-56.863125 142.15625 -57.523125 142.15625 -58.203125 142.15625 C-59.83742251 140.0617532 -61.34479734 137.97842909 -62.828125 135.78125 C-63.24835938 135.17796875 -63.66859375 134.5746875 -64.1015625 133.953125 C-67.203125 129.42162135 -67.203125 129.42162135 -67.203125 127.15625 C-67.863125 127.15625 -68.523125 127.15625 -69.203125 127.15625 C-72.3995886 120.15447259 -75.49481813 112.96251383 -75.203125 105.15625 C-75.863125 105.15625 -76.523125 105.15625 -77.203125 105.15625 C-80.86192513 79.90453108 -77.24436678 57.63612668 -63.203125 36.15625 C-60.21249087 32.15643503 -56.81361134 28.6011177 -53.203125 25.15625 C-52.65527344 24.5684375 -52.10742188 23.980625 -51.54296875 23.375 C-50.203125 22.15625 -50.203125 22.15625 -48.203125 22.15625 C-48.203125 21.49625 -48.203125 20.83625 -48.203125 20.15625 C-42.79136029 16.15625 -42.79136029 16.15625 -40.203125 16.15625 C-39.873125 15.16625 -39.543125 14.17625 -39.203125 13.15625 C-37.553125 12.82625 -35.903125 12.49625 -34.203125 12.15625 C-34.203125 11.49625 -34.203125 10.83625 -34.203125 10.15625 C-22.85864055 5.31212148 -12.39619431 0.87916272 0 0 Z " fill="#999999" transform="translate(298.203125,190.84375)"/>
<path d="M0 0 C0 1.65 0 3.3 0 5 C-2.97 5 -5.94 5 -9 5 C-9 4.34 -9 3.68 -9 3 C-10.32 2.67 -11.64 2.34 -13 2 C-11.39658445 1.66307215 -9.79223445 1.33058907 -8.1875 1 C-7.29417969 0.814375 -6.40085937 0.62875 -5.48046875 0.4375 C-3 0 -3 0 0 0 Z " fill="#EDEDED" transform="translate(357,530)"/>
<path d="M0 0 C0.66 0.33 1.32 0.66 2 1 C2 4 2 4 1 7 C0.01 7 -0.98 7 -2 7 C-2 5.68 -2 4.36 -2 3 C-2.66 2.67 -3.32 2.34 -4 2 C-2.125 0.9375 -2.125 0.9375 0 0 Z " fill="#EAEAEA" transform="translate(406,512)"/>
<path d="M0 0 C1.32 1.32 2.64 2.64 4 4 C3.01 5.485 3.01 5.485 2 7 C1.01 6.67 0.02 6.34 -1 6 C-0.67 4.02 -0.34 2.04 0 0 Z " fill="#EFEFEF" transform="translate(166,488)"/>
<path d="M0 0 C1.485 0.99 1.485 0.99 3 2 C3.56737589 9.14893617 3.56737589 9.14893617 1 13 C1.020625 11.865625 1.04125 10.73125 1.0625 9.5625 C1.41577477 6.18424326 1.41577477 6.18424326 0 5 C-0.04063832 3.33382885 -0.042721 1.66611905 0 0 Z " fill="#D6D6D6" transform="translate(531,331)"/>
<path d="M0 0 C0.66 0.33 1.32 0.66 2 1 C0.515 3.475 0.515 3.475 -1 6 C-2.65 5.67 -4.3 5.34 -6 5 C-4.68 4.34 -3.36 3.68 -2 3 C-2 2.34 -2 1.68 -2 1 C-1.34 0.67 -0.68 0.34 0 0 Z " fill="#E8E8E8" transform="translate(432,497)"/>
<path d="M0 0 C0.66 1.32 1.32 2.64 2 4 C0.35 5.32 -1.3 6.64 -3 8 C-3.66 7.67 -4.32 7.34 -5 7 C-3.35 4.69 -1.7 2.38 0 0 Z " fill="#EAEAEA" transform="translate(501,426)"/>
</svg>
